<?xml version="1.0" encoding="UTF-8" standalone="no"?>
<!-- Created with Inkscape (http://www.inkscape.org/) -->
<svg
   xmlns:dc="http://purl.org/dc/elements/1.1/"
   xmlns:cc="http://creativecommons.org/ns#"
   xmlns:rdf="http://www.w3.org/1999/02/22-rdf-syntax-ns#"
   xmlns:svg="http://www.w3.org/2000/svg"
   xmlns="http://www.w3.org/2000/svg"
   xmlns:sodipodi="http://sodipodi.sourceforge.net/DTD/sodipodi-0.dtd"
   xmlns:inkscape="http://www.inkscape.org/namespaces/inkscape"
   width="210mm"
   height="297mm"
   id="svg2"
   sodipodi:version="0.32"
   inkscape:version="0.46"
   sodipodi:docname="woplogo.svg"
   inkscape:output_extension="org.inkscape.output.svg.inkscape">
  <defs
     id="defs4">
    <inkscape:perspective
       sodipodi:type="inkscape:persp3d"
       inkscape:vp_x="0 : 526.18109 : 1"
       inkscape:vp_y="0 : 1000 : 0"
       inkscape:vp_z="744.09448 : 526.18109 : 1"
       inkscape:persp3d-origin="372.04724 : 350.78739 : 1"
       id="perspective10" />
  </defs>
  <sodipodi:namedview
     id="base"
     pagecolor="#ffffff"
     bordercolor="#666666"
     borderopacity="1.0"
     inkscape:pageopacity="0.0"
     inkscape:pageshadow="2"
     inkscape:zoom="1.7223685"
     inkscape:cx="377.14286"
     inkscape:cy="667.44409"
     inkscape:document-units="px"
     inkscape:current-layer="layer1"
     showgrid="false"
     inkscape:window-width="1920"
     inkscape:window-height="1140"
     inkscape:window-x="-4"
     inkscape:window-y="-4" />
  <metadata
     id="metadata7">
    <rdf:RDF>
      <cc:Work
         rdf:about="">
        <dc:format>image/svg+xml</dc:format>
        <dc:type
           rdf:resource="http://purl.org/dc/dcmitype/StillImage" />
      </cc:Work>
    </rdf:RDF>
  </metadata>
  <g
     inkscape:label="Ebene 1"
     inkscape:groupmode="layer"
     id="layer1">
    <rect
       style="fill:#525252;fill-opacity:1;stroke:none;stroke-width:1;stroke-linecap:round;stroke-linejoin:round;stroke-miterlimit:4;stroke-dasharray:none;stroke-opacity:0.27350428"
       id="rect2383"
       width="720"
       height="542.85712"
       x="45.592052"
       y="127.61047"
       ry="27.932169" />
    <path
       sodipodi:type="arc"
       style="fill:#525252;fill-opacity:1;stroke:#8c8c8c;stroke-width:22.30000000000000100;stroke-linecap:round;stroke-linejoin:round;stroke-miterlimit:4;stroke-dasharray:none;stroke-opacity:1"
       id="path3161"
       sodipodi:cx="166.92131"
       sodipodi:cy="311.2316"
       sodipodi:rx="68.220009"
       sodipodi:ry="68.220009"
       d="M 235.14132,311.2316 A 68.220009,68.220009 0 1 1 98.701302,311.2316 A 68.220009,68.220009 0 1 1 235.14132,311.2316 z"
       transform="translate(290.87852,232.81893)" />
    <path
       sodipodi:type="arc"
       style="fill:#525252;fill-opacity:1;stroke:#8c8c8c;stroke-width:22.30000000000000100;stroke-linecap:round;stroke-linejoin:round;stroke-miterlimit:4;stroke-dasharray:none;stroke-opacity:1"
       id="path3157"
       sodipodi:cx="166.92131"
       sodipodi:cy="311.2316"
       sodipodi:rx="68.220009"
       sodipodi:ry="68.220009"
       d="M 235.14132,311.2316 A 68.220009,68.220009 0 1 1 98.701302,311.2316 A 68.220009,68.220009 0 1 1 235.14132,311.2316 z"
       transform="translate(290.87852,-39.480517)" />
    <path
       transform="translate(290.87852,96.378911)"
       d="M 235.14132,311.2316 A 68.220009,68.220009 0 1 1 98.701302,311.2316 A 68.220009,68.220009 0 1 1 235.14132,311.2316 z"
       sodipodi:ry="68.220009"
       sodipodi:rx="68.220009"
       sodipodi:cy="311.2316"
       sodipodi:cx="166.92131"
       id="path3159"
       style="fill:#525252;fill-opacity:1;stroke:#ffffff;stroke-width:22.3;stroke-linecap:round;stroke-linejoin:round;stroke-miterlimit:4;stroke-dasharray:none;stroke-opacity:1"
       sodipodi:type="arc" />
    <path
       sodipodi:type="arc"
       style="fill:#525252;fill-opacity:1;stroke:#ffffff;stroke-width:22.3;stroke-linecap:round;stroke-linejoin:round;stroke-miterlimit:4;stroke-dasharray:none;stroke-opacity:1"
       id="path3165"
       sodipodi:cx="166.92131"
       sodipodi:cy="311.2316"
       sodipodi:rx="68.220009"
       sodipodi:ry="68.220009"
       d="M 235.14132,311.2316 A 68.220009,68.220009 0 1 1 98.701302,311.2316 A 68.220009,68.220009 0 1 1 235.14132,311.2316 z"
       transform="translate(427.89914,96.378911)" />
    <path
       transform="translate(153.8579,96.378911)"
       style="fill:#525252;fill-opacity:1;stroke:#ffffff;stroke-width:22.3;stroke-linecap:round;stroke-linejoin:round;stroke-miterlimit:4;stroke-opacity:1;stroke-dasharray:none"
       d="M 166.92131,243.01159 C 204.57876,243.01159 235.14132,273.57415 235.14132,311.2316 C 235.14132,348.88904 204.57876,379.45161 166.92131,379.45161 C 129.26387,379.45161 98.701302,348.88904 98.701302,311.2316"
       id="path3167"
       sodipodi:nodetypes="ccss" />
    <path
       transform="translate(17.998472,96.378911)"
       style="fill:#525252;fill-opacity:1;stroke:#ffffff;stroke-width:22.3;stroke-linecap:round;stroke-linejoin:round;stroke-miterlimit:4;stroke-opacity:1;stroke-dasharray:none"
       d="M 235.14132,311.2316 C 235.14132,348.88904 204.57876,379.45161 166.92131,379.45161 C 129.26387,379.45161 98.701302,348.88904 98.701302,311.2316 C 98.701302,273.57415 129.26387,243.01159 166.92131,243.01159"
       id="path3169"
       sodipodi:nodetypes="csss" />
    <path
       style="fill:none;fill-rule:evenodd;stroke:#ffffff;stroke-width:22.30000000000000100;stroke-linecap:round;stroke-linejoin:miter;stroke-opacity:1;stroke-miterlimit:4;stroke-dasharray:none"
       d="M 526.01984,410.22318 L 526.01984,546.6632"
       id="path3173" />
    <path
       style="fill:#999999;fill-opacity:1;stroke:none;stroke-width:1;stroke-linecap:round;stroke-linejoin:round;stroke-miterlimit:4;stroke-dasharray:none;stroke-opacity:0.27350428"
       d="M 390.5875,289.39697 C 389.62765,289.39697 388.7785,288.9354 388.24332,288.22198 C 388.2416,288.21982 388.23921,288.21833 388.2375,288.21616 L 364.87715,258.61437 C 364.83508,258.56105 364.79645,258.50742 364.76082,258.4515 C 364.75695,258.44543 364.75297,258.44014 364.74918,258.43405 C 364.39793,257.95049 364.19077,257.36104 364.19077,256.71808 C 364.19077,255.09905 365.50341,253.78059 367.12245,253.78059 C 367.22364,253.78059 367.32636,253.78802 367.42492,253.79804 L 413.54066,253.79804 C 413.63922,253.78802 413.74195,253.78059 413.84314,253.78059 C 415.46217,253.78059 416.77481,255.09905 416.77481,256.71808 C 416.77481,257.42641 416.5244,258.0724 416.10588,258.57947 C 416.09456,258.59483 416.08282,258.61086 416.07098,258.626 L 393.01893,288.10564 C 392.49167,288.88587 391.59939,289.39697 390.5875,289.39697 z"
       id="path3162"
       sodipodi:nodetypes="csccssssccsscccc"
       inkscape:export-filename="c:\Dokumente und Einstellungen\Besitzer\Eigene Dateien\Visual Studio 2008\Projects\WOP\WOP\resources\wop_up.png"
       inkscape:export-xdpi="90"
       inkscape:export-ydpi="90" />
    <path
       inkscape:export-ydpi="90"
       inkscape:export-xdpi="90"
       inkscape:export-filename="c:\Dokumente und Einstellungen\Besitzer\Eigene Dateien\Visual Studio 2008\Projects\WOP\WOP\resources\wop_up.png"
       sodipodi:nodetypes="csccssssccsscccc"
       id="path3291"
       d="M 390.5875,568.08298 C 389.62765,568.08298 388.7785,567.62141 388.24332,566.90799 C 388.2416,566.90583 388.23921,566.90434 388.2375,566.90217 L 364.87715,537.30038 C 364.83508,537.24706 364.79645,537.19343 364.76082,537.13751 C 364.75695,537.13144 364.75297,537.12615 364.74918,537.12006 C 364.39793,536.6365 364.19077,536.04705 364.19077,535.40409 C 364.19077,533.78506 365.50341,532.4666 367.12245,532.4666 C 367.22364,532.4666 367.32636,532.47403 367.42492,532.48405 L 413.54066,532.48405 C 413.63922,532.47403 413.74195,532.4666 413.84314,532.4666 C 415.46217,532.4666 416.77481,533.78506 416.77481,535.40409 C 416.77481,536.11242 416.5244,536.75841 416.10588,537.26548 C 416.09456,537.28084 416.08282,537.29687 416.07098,537.31201 L 393.01893,566.79165 C 392.49167,567.57188 391.59939,568.08298 390.5875,568.08298 z"
       style="fill:#999999;fill-opacity:1;stroke:none;stroke-width:1;stroke-linecap:round;stroke-linejoin:round;stroke-miterlimit:4;stroke-dasharray:none;stroke-opacity:0.27350428" />
  </g>
</svg>
